<svg width="288" height="128" viewBox="0 0 288 128" fill="none" xmlns="http://www.w3.org/2000/svg">
<path d="M0 0H288V96C288 111.085 288 118.627 283.314 123.314C278.627 128 271.085 128 256 128H32C16.9151 128 9.37258 128 4.68629 123.314C0 118.627 0 111.085 0 96V0Z" fill="#FF7757"/>
<path d="M21.512 53.512C22.016 53.536 22.676 53.56 23.492 53.584C24.308 53.608 25.112 53.62 25.904 53.62C27.032 53.62 28.112 53.608 29.144 53.584C30.176 53.56 30.908 53.548 31.34 53.548C33.86 53.548 35.756 54.076 37.028 55.132C38.3 56.188 38.936 57.544 38.936 59.2C38.936 60.04 38.756 60.868 38.396 61.684C38.06 62.476 37.484 63.208 36.668 63.88C35.876 64.528 34.808 65.056 33.464 65.464V65.536C35.36 65.776 36.836 66.232 37.892 66.904C38.972 67.552 39.728 68.32 40.16 69.208C40.592 70.096 40.808 71.032 40.808 72.016C40.808 73.384 40.46 74.596 39.764 75.652C39.092 76.684 38.108 77.5 36.812 78.1C35.516 78.7 33.968 79 32.168 79C31.64 79 30.848 78.988 29.792 78.964C28.736 78.916 27.464 78.892 25.976 78.892C25.136 78.892 24.308 78.904 23.492 78.928C22.676 78.928 22.016 78.952 21.512 79V78.28C22.328 78.232 22.94 78.136 23.348 77.992C23.78 77.848 24.068 77.56 24.212 77.128C24.356 76.696 24.428 76.048 24.428 75.184V57.328C24.428 56.44 24.356 55.792 24.212 55.384C24.068 54.952 23.78 54.664 23.348 54.52C22.94 54.352 22.328 54.256 21.512 54.232V53.512ZM30.44 54.232C29.336 54.232 28.616 54.436 28.28 54.844C27.944 55.252 27.776 56.08 27.776 57.328V75.184C27.776 76.024 27.848 76.66 27.992 77.092C28.136 77.524 28.4 77.812 28.784 77.956C29.168 78.1 29.732 78.172 30.476 78.172C32.828 78.172 34.532 77.632 35.588 76.552C36.668 75.448 37.208 73.888 37.208 71.872C37.208 70.024 36.704 68.596 35.696 67.588C34.712 66.58 33.08 66.076 30.8 66.076H27.092C27.092 66.076 27.092 65.98 27.092 65.788C27.092 65.572 27.092 65.464 27.092 65.464H30.188C31.604 65.464 32.696 65.2 33.464 64.672C34.232 64.12 34.76 63.4 35.048 62.512C35.336 61.6 35.48 60.628 35.48 59.596C35.48 57.82 35.084 56.488 34.292 55.6C33.524 54.688 32.24 54.232 30.44 54.232ZM52.2937 59.956C53.8297 59.956 55.2097 60.292 56.4337 60.964C57.6577 61.636 58.6297 62.692 59.3497 64.132C60.0937 65.572 60.4657 67.444 60.4657 69.748C60.4657 72.052 60.0937 73.924 59.3497 75.364C58.6297 76.78 57.6577 77.824 56.4337 78.496C55.2097 79.168 53.8297 79.504 52.2937 79.504C50.7817 79.504 49.4017 79.168 48.1537 78.496C46.9297 77.824 45.9457 76.78 45.2017 75.364C44.4817 73.924 44.1217 72.052 44.1217 69.748C44.1217 67.444 44.4817 65.572 45.2017 64.132C45.9457 62.692 46.9297 61.636 48.1537 60.964C49.4017 60.292 50.7817 59.956 52.2937 59.956ZM52.2937 60.676C50.9257 60.676 49.7977 61.384 48.9097 62.8C48.0457 64.216 47.6137 66.532 47.6137 69.748C47.6137 72.964 48.0457 75.28 48.9097 76.696C49.7977 78.088 50.9257 78.784 52.2937 78.784C53.6617 78.784 54.7777 78.088 55.6417 76.696C56.5297 75.28 56.9737 72.964 56.9737 69.748C56.9737 66.532 56.5297 64.216 55.6417 62.8C54.7777 61.384 53.6617 60.676 52.2937 60.676ZM72.0163 59.956C73.5523 59.956 74.9323 60.292 76.1563 60.964C77.3803 61.636 78.3523 62.692 79.0723 64.132C79.8163 65.572 80.1883 67.444 80.1883 69.748C80.1883 72.052 79.8163 73.924 79.0723 75.364C78.3523 76.78 77.3803 77.824 76.1563 78.496C74.9323 79.168 73.5523 79.504 72.0163 79.504C70.5043 79.504 69.1243 79.168 67.8763 78.496C66.6523 77.824 65.6683 76.78 64.9243 75.364C64.2043 73.924 63.8443 72.052 63.8443 69.748C63.8443 67.444 64.2043 65.572 64.9243 64.132C65.6683 62.692 66.6523 61.636 67.8763 60.964C69.1243 60.292 70.5043 59.956 72.0163 59.956ZM72.0163 60.676C70.6483 60.676 69.5203 61.384 68.6323 62.8C67.7683 64.216 67.3363 66.532 67.3363 69.748C67.3363 72.964 67.7683 75.28 68.6323 76.696C69.5203 78.088 70.6483 78.784 72.0163 78.784C73.3843 78.784 74.5003 78.088 75.3643 76.696C76.2523 75.28 76.6963 72.964 76.6963 69.748C76.6963 66.532 76.2523 64.216 75.3643 62.8C74.5003 61.384 73.3843 60.676 72.0163 60.676ZM88.2194 50.776V75.652C88.2194 76.66 88.3994 77.344 88.7594 77.704C89.1194 78.064 89.7314 78.244 90.5954 78.244V79C90.2114 78.976 89.6354 78.952 88.8674 78.928C88.1234 78.88 87.3674 78.856 86.5994 78.856C85.7834 78.856 84.9554 78.88 84.1154 78.928C83.2754 78.952 82.6514 78.976 82.2434 79V78.244C83.2274 78.244 83.9234 78.064 84.3314 77.704C84.7634 77.344 84.9794 76.66 84.9794 75.652V55.096C84.9794 54.016 84.7874 53.224 84.4034 52.72C84.0194 52.192 83.2994 51.928 82.2434 51.928V51.172C83.0114 51.244 83.7554 51.28 84.4754 51.28C85.1714 51.28 85.8314 51.244 86.4554 51.172C87.1034 51.076 87.6914 50.944 88.2194 50.776ZM99.6674 60.46V61.18C99.0674 61.228 98.5034 61.396 97.9754 61.684C97.4474 61.948 96.9314 62.344 96.4274 62.872L91.3514 68.2L91.8554 67.192L98.5514 76.372C98.9594 76.924 99.3434 77.356 99.7034 77.668C100.087 77.98 100.543 78.172 101.071 78.244V79C100.807 78.976 100.387 78.952 99.8114 78.928C99.2594 78.88 98.7074 78.856 98.1554 78.856C97.4114 78.856 96.6554 78.88 95.8874 78.928C95.1194 78.952 94.5434 78.976 94.1594 79V78.244C94.6394 78.244 94.9754 78.124 95.1674 77.884C95.3594 77.644 95.3234 77.356 95.0594 77.02L90.9194 70.972C90.4634 70.324 90.0434 69.904 89.6594 69.712C89.2994 69.52 88.7714 69.412 88.0754 69.388V68.668C88.8434 68.572 89.4674 68.416 89.9474 68.2C90.4274 67.96 90.8834 67.612 91.3154 67.156L93.9794 64.384C94.7474 63.592 95.1314 62.968 95.1314 62.512C95.1314 62.032 94.8794 61.696 94.3754 61.504C93.8954 61.288 93.2594 61.18 92.4674 61.18V60.46C93.0914 60.484 93.7874 60.52 94.5554 60.568C95.3474 60.592 96.0074 60.604 96.5354 60.604C96.9434 60.604 97.3394 60.604 97.7234 60.604C98.1074 60.58 98.4674 60.556 98.8034 60.532C99.1394 60.508 99.4274 60.484 99.6674 60.46ZM133.979 53.512V54.232C133.163 54.256 132.539 54.376 132.107 54.592C131.699 54.808 131.423 55.156 131.279 55.636C131.135 56.116 131.063 56.8 131.063 57.688V79.18C130.919 79.18 130.775 79.18 130.631 79.18C130.511 79.18 130.379 79.18 130.235 79.18L115.115 55.816V74.824C115.115 75.688 115.187 76.372 115.331 76.876C115.499 77.356 115.811 77.704 116.267 77.92C116.747 78.112 117.455 78.232 118.391 78.28V79C117.959 78.952 117.395 78.928 116.699 78.928C116.003 78.904 115.343 78.892 114.719 78.892C114.119 78.892 113.507 78.904 112.883 78.928C112.283 78.928 111.779 78.952 111.371 79V78.28C112.187 78.232 112.799 78.112 113.207 77.92C113.639 77.704 113.927 77.356 114.071 76.876C114.215 76.372 114.287 75.688 114.287 74.824V57.328C114.287 56.44 114.215 55.792 114.071 55.384C113.927 54.952 113.639 54.664 113.207 54.52C112.799 54.352 112.187 54.256 111.371 54.232V53.512C111.779 53.536 112.283 53.56 112.883 53.584C113.507 53.608 114.119 53.62 114.719 53.62C115.247 53.62 115.751 53.608 116.231 53.584C116.711 53.56 117.143 53.536 117.527 53.512L130.235 73.096V57.688C130.235 56.8 130.151 56.116 129.983 55.636C129.839 55.156 129.527 54.808 129.047 54.592C128.591 54.376 127.895 54.256 126.959 54.232V53.512C127.391 53.536 127.955 53.56 128.651 53.584C129.371 53.608 130.031 53.62 130.631 53.62C131.255 53.62 131.867 53.608 132.467 53.584C133.091 53.56 133.595 53.536 133.979 53.512ZM144.509 59.956C146.045 59.956 147.425 60.292 148.649 60.964C149.873 61.636 150.845 62.692 151.565 64.132C152.309 65.572 152.681 67.444 152.681 69.748C152.681 72.052 152.309 73.924 151.565 75.364C150.845 76.78 149.873 77.824 148.649 78.496C147.425 79.168 146.045 79.504 144.509 79.504C142.997 79.504 141.617 79.168 140.369 78.496C139.145 77.824 138.161 76.78 137.417 75.364C136.697 73.924 136.337 72.052 136.337 69.748C136.337 67.444 136.697 65.572 137.417 64.132C138.161 62.692 139.145 61.636 140.369 60.964C141.617 60.292 142.997 59.956 144.509 59.956ZM144.509 60.676C143.141 60.676 142.013 61.384 141.125 62.8C140.261 64.216 139.829 66.532 139.829 69.748C139.829 72.964 140.261 75.28 141.125 76.696C142.013 78.088 143.141 78.784 144.509 78.784C145.877 78.784 146.993 78.088 147.857 76.696C148.745 75.28 149.189 72.964 149.189 69.748C149.189 66.532 148.745 64.216 147.857 62.8C146.993 61.384 145.877 60.676 144.509 60.676ZM161.969 60.46V61.216C161.369 61.216 160.841 61.264 160.385 61.36C159.929 61.432 159.629 61.672 159.485 62.08C159.341 62.488 159.449 63.208 159.809 64.24L163.553 74.968L163.301 74.932L168.593 60.316L169.313 60.604L162.725 79.18C162.629 79.18 162.533 79.18 162.437 79.18C162.341 79.18 162.233 79.18 162.113 79.18L156.209 63.232C155.825 62.272 155.441 61.696 155.057 61.504C154.697 61.312 154.385 61.216 154.121 61.216V60.46C154.601 60.532 155.093 60.592 155.597 60.64C156.125 60.664 156.689 60.676 157.289 60.676C158.033 60.676 158.813 60.652 159.629 60.604C160.469 60.556 161.249 60.508 161.969 60.46ZM181.733 60.46V61.18C181.277 61.228 180.845 61.432 180.437 61.792C180.053 62.128 179.705 62.764 179.393 63.7L174.173 79.18C174.077 79.18 173.981 79.18 173.885 79.18C173.789 79.18 173.681 79.18 173.561 79.18L167.765 64.456L168.593 60.316C168.737 60.316 168.869 60.316 168.989 60.316C169.133 60.316 169.277 60.316 169.421 60.316L175.037 75.184L174.749 75.4L178.313 64.564C178.577 63.748 178.673 63.112 178.601 62.656C178.553 62.176 178.313 61.828 177.881 61.612C177.473 61.372 176.837 61.228 175.973 61.18V60.46C176.405 60.484 176.777 60.508 177.089 60.532C177.401 60.532 177.701 60.544 177.989 60.568C178.301 60.568 178.637 60.568 178.997 60.568C179.549 60.568 180.041 60.556 180.473 60.532C180.929 60.508 181.349 60.484 181.733 60.46Z" fill="white"/>
<path d="M268.707 64.7071C269.098 64.3166 269.098 63.6834 268.707 63.2929L262.343 56.9289C261.953 56.5384 261.319 56.5384 260.929 56.9289C260.538 57.3195 260.538 57.9526 260.929 58.3431L266.586 64L260.929 69.6569C260.538 70.0474 260.538 70.6805 260.929 71.0711C261.319 71.4616 261.953 71.4616 262.343 71.0711L268.707 64.7071ZM247 65L268 65L268 63L247 63L247 65Z" fill="white"/>
</svg>
