<svg width="127" height="56" viewBox="0 0 127 56" fill="none" xmlns="http://www.w3.org/2000/svg">
<rect y="0.00012207" width="127" height="56" rx="12" fill="#FF7654"/>
<path d="M26.2 35.0001C26.0533 35.0001 25.94 34.9601 25.86 34.8801C25.78 34.7868 25.74 34.6735 25.74 34.5401V21.4801C25.74 21.3335 25.78 21.2201 25.86 21.1401C25.94 21.0468 26.0533 21.0001 26.2 21.0001H30.74C32.1133 21.0001 33.22 21.2068 34.06 21.6201C34.9 22.0335 35.5133 22.6468 35.9 23.4601C36.2867 24.2601 36.4867 25.2468 36.5 26.4201C36.5133 27.0201 36.52 27.5468 36.52 28.0001C36.52 28.4535 36.5133 28.9735 36.5 29.5601C36.4733 30.7868 36.2667 31.8068 35.88 32.6201C35.5067 33.4201 34.9067 34.0201 34.08 34.4201C33.2667 34.8068 32.1867 35.0001 30.84 35.0001H26.2ZM27.7 33.3001H30.74C31.66 33.3001 32.3933 33.1735 32.94 32.9201C33.4867 32.6668 33.88 32.2601 34.12 31.7001C34.3733 31.1401 34.5067 30.4001 34.52 29.4801C34.5467 29.0801 34.56 28.7335 34.56 28.4401C34.56 28.1335 34.56 27.8335 34.56 27.5401C34.56 27.2335 34.5467 26.8868 34.52 26.5001C34.4933 25.2068 34.1867 24.2535 33.6 23.6401C33.0133 23.0135 32.0267 22.7001 30.64 22.7001H27.7V33.3001ZM39.9891 35.0001C39.8424 35.0001 39.7291 34.9601 39.6491 34.8801C39.5691 34.7868 39.5291 34.6735 39.5291 34.5401V21.4801C39.5291 21.3335 39.5691 21.2201 39.6491 21.1401C39.7291 21.0468 39.8424 21.0001 39.9891 21.0001H48.2491C48.3957 21.0001 48.5091 21.0468 48.5891 21.1401C48.6691 21.2201 48.7091 21.3335 48.7091 21.4801V22.2401C48.7091 22.3868 48.6691 22.5001 48.5891 22.5801C48.5091 22.6601 48.3957 22.7001 48.2491 22.7001H41.4491V27.0801H47.8091C47.9557 27.0801 48.0691 27.1268 48.1491 27.2201C48.2291 27.3001 48.2691 27.4135 48.2691 27.5601V28.3001C48.2691 28.4335 48.2291 28.5468 48.1491 28.6401C48.0691 28.7201 47.9557 28.7601 47.8091 28.7601H41.4491V33.3001H48.4091C48.5557 33.3001 48.6691 33.3401 48.7491 33.4201C48.8291 33.5001 48.8691 33.6135 48.8691 33.7601V34.5401C48.8691 34.6735 48.8291 34.7868 48.7491 34.8801C48.6691 34.9601 48.5557 35.0001 48.4091 35.0001H39.9891ZM55.178 35.0001C55.0446 35.0001 54.9313 34.9601 54.838 34.8801C54.758 34.7868 54.718 34.6735 54.718 34.5401V22.7801H50.878C50.7446 22.7801 50.6313 22.7401 50.538 22.6601C50.458 22.5668 50.418 22.4535 50.418 22.3201V21.4801C50.418 21.3335 50.458 21.2201 50.538 21.1401C50.6313 21.0468 50.7446 21.0001 50.878 21.0001H60.518C60.6646 21.0001 60.778 21.0468 60.858 21.1401C60.9513 21.2201 60.998 21.3335 60.998 21.4801V22.3201C60.998 22.4535 60.9513 22.5668 60.858 22.6601C60.778 22.7401 60.6646 22.7801 60.518 22.7801H56.698V34.5401C56.698 34.6735 56.6513 34.7868 56.558 34.8801C56.478 34.9601 56.3646 35.0001 56.218 35.0001H55.178ZM60.8156 35.0001C60.709 35.0001 60.6156 34.9601 60.5356 34.8801C60.4556 34.8001 60.4156 34.7068 60.4156 34.6001C60.4156 34.5335 60.4223 34.4601 60.4356 34.3801L65.3956 21.4401C65.449 21.3068 65.5223 21.2001 65.6156 21.1201C65.709 21.0401 65.849 21.0001 66.0356 21.0001H67.3956C67.569 21.0001 67.7023 21.0401 67.7956 21.1201C67.9023 21.2001 67.9823 21.3068 68.0356 21.4401L72.9756 34.3801C73.0023 34.4601 73.0156 34.5335 73.0156 34.6001C73.0156 34.7068 72.9756 34.8001 72.8956 34.8801C72.8156 34.9601 72.7223 35.0001 72.6156 35.0001H71.5956C71.4356 35.0001 71.3156 34.9601 71.2356 34.8801C71.169 34.8001 71.1223 34.7268 71.0956 34.6601L69.9956 31.8201H63.4356L62.3356 34.6601C62.3223 34.7268 62.2756 34.8001 62.1956 34.8801C62.1156 34.9601 61.9956 35.0001 61.8356 35.0001H60.8156ZM64.0156 30.1001H69.4156L66.7156 23.0001L64.0156 30.1001ZM75.6141 35.0001C75.4674 35.0001 75.3541 34.9601 75.2741 34.8801C75.1941 34.7868 75.1541 34.6735 75.1541 34.5401V21.4601C75.1541 21.3268 75.1941 21.2201 75.2741 21.1401C75.3541 21.0468 75.4674 21.0001 75.6141 21.0001H76.6741C76.8074 21.0001 76.9141 21.0468 76.9941 21.1401C77.0874 21.2201 77.1341 21.3268 77.1341 21.4601V34.5401C77.1341 34.6735 77.0874 34.7868 76.9941 34.8801C76.9141 34.9601 76.8074 35.0001 76.6741 35.0001H75.6141ZM81.0828 35.0001C80.9361 35.0001 80.8228 34.9601 80.7428 34.8801C80.6628 34.7868 80.6228 34.6735 80.6228 34.5401V21.4601C80.6228 21.3268 80.6628 21.2201 80.7428 21.1401C80.8228 21.0468 80.9361 21.0001 81.0828 21.0001H82.1428C82.2761 21.0001 82.3828 21.0468 82.4628 21.1401C82.5428 21.2201 82.5828 21.3268 82.5828 21.4601V33.2601H89.2428C89.3895 33.2601 89.5028 33.3068 89.5828 33.4001C89.6628 33.4801 89.7028 33.5935 89.7028 33.7401V34.5401C89.7028 34.6735 89.6628 34.7868 89.5828 34.8801C89.5028 34.9601 89.3895 35.0001 89.2428 35.0001H81.0828ZM96.3923 35.2001C95.2323 35.2001 94.259 35.0268 93.4723 34.6801C92.6857 34.3201 92.079 33.8601 91.6523 33.3001C91.239 32.7268 91.019 32.1201 90.9923 31.4801C90.9923 31.3735 91.0323 31.2801 91.1123 31.2001C91.2057 31.1068 91.3123 31.0601 91.4323 31.0601H92.4523C92.6123 31.0601 92.7323 31.1001 92.8123 31.1801C92.8923 31.2601 92.9457 31.3535 92.9723 31.4601C93.039 31.7801 93.199 32.1001 93.4523 32.4201C93.719 32.7268 94.0857 32.9868 94.5523 33.2001C95.0323 33.4001 95.6457 33.5001 96.3923 33.5001C97.539 33.5001 98.379 33.3001 98.9123 32.9001C99.459 32.4868 99.7323 31.9401 99.7323 31.2601C99.7323 30.7935 99.5857 30.4201 99.2923 30.1401C99.0123 29.8468 98.579 29.5868 97.9923 29.3601C97.4057 29.1335 96.6457 28.8868 95.7123 28.6201C94.739 28.3401 93.9323 28.0335 93.2923 27.7001C92.6523 27.3668 92.1723 26.9535 91.8523 26.4601C91.5457 25.9668 91.3923 25.3401 91.3923 24.5801C91.3923 23.8601 91.5857 23.2201 91.9723 22.6601C92.359 22.0868 92.9123 21.6335 93.6323 21.3001C94.3657 20.9668 95.2523 20.8001 96.2923 20.8001C97.119 20.8001 97.839 20.9135 98.4523 21.1401C99.079 21.3535 99.599 21.6468 100.012 22.0201C100.426 22.3801 100.739 22.7735 100.952 23.2001C101.166 23.6135 101.279 24.0201 101.292 24.4201C101.292 24.5135 101.259 24.6068 101.192 24.7001C101.126 24.7801 101.019 24.8201 100.872 24.8201H99.8123C99.719 24.8201 99.619 24.7935 99.5123 24.7401C99.419 24.6868 99.3457 24.5868 99.2923 24.4401C99.2123 23.8935 98.9057 23.4335 98.3723 23.0601C97.839 22.6868 97.1457 22.5001 96.2923 22.5001C95.4257 22.5001 94.719 22.6668 94.1723 23.0001C93.639 23.3335 93.3723 23.8535 93.3723 24.5601C93.3723 25.0135 93.499 25.3935 93.7523 25.7001C94.0057 25.9935 94.4057 26.2535 94.9523 26.4801C95.499 26.7068 96.2123 26.9468 97.0923 27.2001C98.159 27.4935 99.0323 27.8068 99.7123 28.1401C100.392 28.4601 100.892 28.8668 101.212 29.3601C101.546 29.8401 101.712 30.4601 101.712 31.2201C101.712 32.0601 101.492 32.7801 101.052 33.3801C100.612 33.9668 99.9923 34.4201 99.1923 34.7401C98.4057 35.0468 97.4723 35.2001 96.3923 35.2001Z" fill="white"/>
</svg>
