<svg width="136" height="38" viewBox="0 0 136 38" fill="none" xmlns="http://www.w3.org/2000/svg">
<path d="M1.98 25.5001C1.848 25.5001 1.746 25.4641 1.674 25.3921C1.602 25.3081 1.566 25.2061 1.566 25.0861V13.3321C1.566 13.2001 1.602 13.0981 1.674 13.0261C1.746 12.9421 1.848 12.9001 1.98 12.9001H9.324C9.456 12.9001 9.558 12.9421 9.63 13.0261C9.702 13.0981 9.738 13.2001 9.738 13.3321V14.0521C9.738 14.1841 9.702 14.2861 9.63 14.3581C9.558 14.4301 9.456 14.4661 9.324 14.4661H3.312V18.6601H8.964C9.096 18.6601 9.198 18.7021 9.27 18.7861C9.342 18.8581 9.378 18.9601 9.378 19.0921V19.8121C9.378 19.9321 9.342 20.0341 9.27 20.1181C9.198 20.1901 9.096 20.2261 8.964 20.2261H3.312V25.0861C3.312 25.2061 3.27 25.3081 3.186 25.3921C3.114 25.4641 3.012 25.5001 2.88 25.5001H1.98ZM12.0116 25.5001C11.8916 25.5001 11.7896 25.4641 11.7056 25.3921C11.6336 25.3081 11.5976 25.2061 11.5976 25.0861V16.5721C11.5976 16.4521 11.6336 16.3501 11.7056 16.2661C11.7896 16.1821 11.8916 16.1401 12.0116 16.1401H12.8396C12.9596 16.1401 13.0616 16.1821 13.1456 16.2661C13.2296 16.3501 13.2716 16.4521 13.2716 16.5721V17.3641C13.5116 16.9561 13.8416 16.6501 14.2616 16.4461C14.6816 16.2421 15.1856 16.1401 15.7736 16.1401H16.4936C16.6136 16.1401 16.7096 16.1821 16.7816 16.2661C16.8536 16.3381 16.8896 16.4341 16.8896 16.5541V17.2921C16.8896 17.4121 16.8536 17.5081 16.7816 17.5801C16.7096 17.6521 16.6136 17.6881 16.4936 17.6881H15.4136C14.7656 17.6881 14.2556 17.8801 13.8836 18.2641C13.5116 18.6361 13.3256 19.1461 13.3256 19.7941V25.0861C13.3256 25.2061 13.2836 25.3081 13.1996 25.3921C13.1156 25.4641 13.0136 25.5001 12.8936 25.5001H12.0116ZM22.0937 25.6801C21.1817 25.6801 20.4197 25.5061 19.8077 25.1581C19.1957 24.8101 18.7277 24.3301 18.4037 23.7181C18.0797 23.0941 17.8997 22.3861 17.8637 21.5941C17.8517 21.3901 17.8457 21.1321 17.8457 20.8201C17.8457 20.4961 17.8517 20.2381 17.8637 20.0461C17.8997 19.2421 18.0797 18.5341 18.4037 17.9221C18.7397 17.3101 19.2137 16.8301 19.8257 16.4821C20.4377 16.1341 21.1937 15.9601 22.0937 15.9601C22.9937 15.9601 23.7497 16.1341 24.3617 16.4821C24.9737 16.8301 25.4417 17.3101 25.7657 17.9221C26.1017 18.5341 26.2877 19.2421 26.3237 20.0461C26.3357 20.2381 26.3417 20.4961 26.3417 20.8201C26.3417 21.1321 26.3357 21.3901 26.3237 21.5941C26.2877 22.3861 26.1077 23.0941 25.7837 23.7181C25.4597 24.3301 24.9917 24.8101 24.3797 25.1581C23.7677 25.5061 23.0057 25.6801 22.0937 25.6801ZM22.0937 24.2941C22.8377 24.2941 23.4317 24.0601 23.8757 23.5921C24.3197 23.1121 24.5597 22.4161 24.5957 21.5041C24.6077 21.3241 24.6137 21.0961 24.6137 20.8201C24.6137 20.5441 24.6077 20.3161 24.5957 20.1361C24.5597 19.2241 24.3197 18.5341 23.8757 18.0661C23.4317 17.5861 22.8377 17.3461 22.0937 17.3461C21.3497 17.3461 20.7497 17.5861 20.2937 18.0661C19.8497 18.5341 19.6157 19.2241 19.5917 20.1361C19.5797 20.3161 19.5737 20.5441 19.5737 20.8201C19.5737 21.0961 19.5797 21.3241 19.5917 21.5041C19.6157 22.4161 19.8497 23.1121 20.2937 23.5921C20.7497 24.0601 21.3497 24.2941 22.0937 24.2941ZM29.0097 25.5001C28.8897 25.5001 28.7877 25.4641 28.7037 25.3921C28.6317 25.3081 28.5957 25.2061 28.5957 25.0861V16.5541C28.5957 16.4341 28.6317 16.3381 28.7037 16.2661C28.7877 16.1821 28.8897 16.1401 29.0097 16.1401H29.8197C29.9397 16.1401 30.0357 16.1821 30.1077 16.2661C30.1917 16.3381 30.2337 16.4341 30.2337 16.5541V17.1841C30.5097 16.8121 30.8577 16.5181 31.2777 16.3021C31.6977 16.0741 32.2017 15.9601 32.7897 15.9601C34.1457 15.9481 35.1057 16.5001 35.6697 17.6161C35.9457 17.1121 36.3477 16.7101 36.8757 16.4101C37.4037 16.1101 38.0037 15.9601 38.6757 15.9601C39.2997 15.9601 39.8637 16.1041 40.3677 16.3921C40.8837 16.6801 41.2857 17.1181 41.5737 17.7061C41.8737 18.2821 42.0237 19.0081 42.0237 19.8841V25.0861C42.0237 25.2061 41.9817 25.3081 41.8977 25.3921C41.8257 25.4641 41.7297 25.5001 41.6097 25.5001H40.7637C40.6437 25.5001 40.5417 25.4641 40.4577 25.3921C40.3857 25.3081 40.3497 25.2061 40.3497 25.0861V20.0461C40.3497 19.3741 40.2537 18.8461 40.0617 18.4621C39.8697 18.0781 39.6117 17.8081 39.2877 17.6521C38.9637 17.4961 38.6097 17.4181 38.2257 17.4181C37.9137 17.4181 37.5957 17.4961 37.2717 17.6521C36.9477 17.8081 36.6777 18.0781 36.4617 18.4621C36.2577 18.8461 36.1557 19.3741 36.1557 20.0461V25.0861C36.1557 25.2061 36.1137 25.3081 36.0297 25.3921C35.9577 25.4641 35.8617 25.5001 35.7417 25.5001H34.8957C34.7757 25.5001 34.6737 25.4641 34.5897 25.3921C34.5177 25.3081 34.4817 25.2061 34.4817 25.0861V20.0461C34.4817 19.3741 34.3797 18.8461 34.1757 18.4621C33.9717 18.0781 33.7077 17.8081 33.3837 17.6521C33.0597 17.4961 32.7177 17.4181 32.3577 17.4181C32.0457 17.4181 31.7277 17.4961 31.4037 17.6521C31.0797 17.8081 30.8097 18.0781 30.5937 18.4621C30.3897 18.8461 30.2877 19.3681 30.2877 20.0281V25.0861C30.2877 25.2061 30.2457 25.3081 30.1617 25.3921C30.0897 25.4641 29.9937 25.5001 29.8737 25.5001H29.0097Z" fill="#767E86"/>
<path d="M73.28 23.1201C73.472 23.1201 73.632 23.1841 73.76 23.3121C73.9093 23.4401 73.9733 23.6001 73.952 23.7921C73.9093 24.8801 73.5467 25.9255 72.864 26.9281C72.1813 27.9308 71.168 28.7521 69.824 29.3921C68.5013 30.0108 66.8907 30.3201 64.992 30.3201C62.2613 30.3201 60.16 29.6161 58.688 28.2081C57.216 26.7788 56.384 24.8161 56.192 22.3201H54.112C53.8987 22.3201 53.7173 22.2561 53.568 22.1281C53.44 21.9788 53.376 21.7975 53.376 21.5841V20.5601C53.376 20.3468 53.44 20.1761 53.568 20.0481C53.7173 19.8988 53.8987 19.8241 54.112 19.8241H56.16V17.8081H54.112C53.8987 17.8081 53.7173 17.7441 53.568 17.6161C53.44 17.4668 53.376 17.2855 53.376 17.0721V16.0161C53.376 15.8028 53.44 15.6321 53.568 15.5041C53.7173 15.3548 53.8987 15.2801 54.112 15.2801H56.192C56.4053 12.7841 57.248 10.8321 58.72 9.42412C60.192 7.99479 62.2827 7.28012 64.992 7.28012C66.8907 7.28012 68.5013 7.60012 69.824 8.24012C71.168 8.85879 72.1813 9.66945 72.864 10.6721C73.5467 11.6535 73.9093 12.6988 73.952 13.8081V13.8721C73.952 14.0428 73.8773 14.1921 73.728 14.3201C73.6 14.4268 73.4507 14.4801 73.28 14.4801H71.648C71.4347 14.4801 71.264 14.4268 71.136 14.3201C71.0293 14.2135 70.9333 14.0215 70.848 13.7441C70.4853 12.3788 69.8133 11.3975 68.832 10.8001C67.8507 10.2028 66.5707 9.90412 64.992 9.90412C61.536 9.90412 59.6373 11.6961 59.296 15.2801H65.696C65.9093 15.2801 66.08 15.3548 66.208 15.5041C66.3573 15.6321 66.432 15.8028 66.432 16.0161V17.0721C66.432 17.2855 66.3573 17.4668 66.208 17.6161C66.08 17.7441 65.9093 17.8081 65.696 17.8081H59.232V19.8241H65.696C65.9307 19.8241 66.112 19.8881 66.24 20.0161C66.368 20.1441 66.432 20.3255 66.432 20.5601V21.5841C66.432 21.7975 66.368 21.9788 66.24 22.1281C66.112 22.2561 65.9307 22.3201 65.696 22.3201H59.296C59.6373 25.8828 61.536 27.6641 64.992 27.6641C66.5707 27.6641 67.8507 27.3655 68.832 26.7681C69.8133 26.1708 70.4853 25.2001 70.848 23.8561C70.9333 23.5788 71.0293 23.3868 71.136 23.2801C71.264 23.1735 71.4347 23.1201 71.648 23.1201H73.28ZM85.062 30.3201C83.462 30.3201 82.0753 30.0321 80.902 29.4561C79.7287 28.8801 78.8327 28.1335 78.214 27.2161C77.5953 26.2775 77.2647 25.2748 77.222 24.2081V24.1441C77.222 23.9735 77.286 23.8348 77.414 23.7281C77.542 23.6215 77.6913 23.5681 77.862 23.5681H79.43C79.878 23.5681 80.166 23.8028 80.294 24.2721C80.614 25.4241 81.2007 26.2881 82.054 26.8641C82.9287 27.4188 83.9313 27.6961 85.062 27.6961C86.5127 27.6961 87.718 27.2588 88.678 26.3841C89.638 25.4881 90.118 24.2615 90.118 22.7041C90.118 21.2748 89.638 20.1441 88.678 19.3121C87.718 18.4588 86.5127 18.0321 85.062 18.0321C84.294 18.0321 83.6753 18.1281 83.206 18.3201C82.7367 18.5121 82.2567 18.7895 81.766 19.1521C81.4887 19.3655 81.254 19.5255 81.062 19.6321C80.8913 19.7175 80.6993 19.7601 80.486 19.7601H78.95C78.758 19.7601 78.5873 19.6961 78.438 19.5681C78.2887 19.4188 78.2247 19.2481 78.246 19.0561L79.238 8.40012C79.302 7.86679 79.5687 7.60012 80.038 7.60012H91.11C91.3447 7.60012 91.526 7.66412 91.654 7.79212C91.782 7.92012 91.846 8.10145 91.846 8.33612V9.52012C91.846 9.73345 91.7713 9.90412 91.622 10.0321C91.494 10.1601 91.3233 10.2241 91.11 10.2241H81.894L81.318 16.6561C82.342 15.9308 83.718 15.5681 85.446 15.5681C86.8753 15.5681 88.1767 15.8561 89.35 16.4321C90.5233 16.9868 91.4513 17.8081 92.134 18.8961C92.838 19.9841 93.19 21.2748 93.19 22.7681C93.19 24.3468 92.838 25.7121 92.134 26.8641C91.4513 27.9948 90.4913 28.8588 89.254 29.4561C88.038 30.0321 86.6407 30.3201 85.062 30.3201ZM104.8 30.3201C102.048 30.3201 100.032 29.5201 98.7515 27.9201C97.4928 26.2988 96.8208 24.1868 96.7355 21.5841L96.7035 18.8321L96.7355 15.9841C96.7995 13.4028 97.4715 11.3121 98.7515 9.71212C100.053 8.09079 102.069 7.28012 104.8 7.28012C107.552 7.28012 109.568 8.09079 110.847 9.71212C112.149 11.3121 112.832 13.4028 112.896 15.9841C112.917 16.5815 112.928 17.5308 112.928 18.8321C112.928 20.0908 112.917 21.0081 112.896 21.5841C112.81 24.1868 112.127 26.2988 110.847 27.9201C109.589 29.5201 107.573 30.3201 104.8 30.3201ZM104.8 27.6641C106.442 27.6641 107.68 27.1201 108.512 26.0321C109.344 24.9441 109.781 23.4081 109.824 21.4241C109.845 20.8055 109.856 19.9201 109.856 18.7681C109.856 17.5948 109.845 16.7201 109.824 16.1441C109.781 14.1815 109.333 12.6561 108.48 11.5681C107.648 10.4588 106.421 9.90412 104.8 9.90412C103.178 9.90412 101.952 10.4588 101.12 11.5681C100.288 12.6561 99.8502 14.1815 99.8075 16.1441L99.7755 18.7681L99.8075 21.4241C99.8502 23.4081 100.288 24.9441 101.12 26.0321C101.952 27.1201 103.178 27.6641 104.8 27.6641ZM125.05 30.3201C122.298 30.3201 120.282 29.5201 119.002 27.9201C117.743 26.2988 117.071 24.1868 116.986 21.5841L116.954 18.8321L116.986 15.9841C117.05 13.4028 117.722 11.3121 119.002 9.71212C120.303 8.09079 122.319 7.28012 125.05 7.28012C127.802 7.28012 129.818 8.09079 131.097 9.71212C132.399 11.3121 133.082 13.4028 133.146 15.9841C133.167 16.5815 133.178 17.5308 133.178 18.8321C133.178 20.0908 133.167 21.0081 133.146 21.5841C133.06 24.1868 132.377 26.2988 131.097 27.9201C129.839 29.5201 127.823 30.3201 125.05 30.3201ZM125.05 27.6641C126.692 27.6641 127.93 27.1201 128.762 26.0321C129.594 24.9441 130.031 23.4081 130.074 21.4241C130.095 20.8055 130.106 19.9201 130.106 18.7681C130.106 17.5948 130.095 16.7201 130.074 16.1441C130.031 14.1815 129.583 12.6561 128.73 11.5681C127.898 10.4588 126.671 9.90412 125.05 9.90412C123.428 9.90412 122.202 10.4588 121.37 11.5681C120.538 12.6561 120.1 14.1815 120.058 16.1441L120.026 18.7681L120.058 21.4241C120.1 23.4081 120.538 24.9441 121.37 26.0321C122.202 27.1201 123.428 27.6641 125.05 27.6641Z" fill="#FF7757"/>
</svg>
